<svg width="175" height="58" viewBox="0 0 175 58" fill="none" xmlns="http://www.w3.org/2000/svg">
<g clip-path="url(#clip0_0_250)">
<rect width="175" height="58" rx="8" fill="#162542"/>
<path d="M31.6 23.784C32.304 23.784 32.9227 23.928 33.456 24.216C33.9893 24.504 34.4 24.9147 34.688 25.448C34.9867 25.9707 35.136 26.5733 35.136 27.256C35.136 27.928 34.9813 28.52 34.672 29.032C34.3733 29.544 33.9467 29.944 33.392 30.232C32.848 30.5093 32.2187 30.648 31.504 30.648H29.248C29.184 30.648 29.152 30.68 29.152 30.744V34.728C29.152 34.9093 29.0613 35 28.88 35H27.168C26.9867 35 26.896 34.9093 26.896 34.728V24.056C26.896 23.8747 26.9867 23.784 27.168 23.784H31.6ZM31.264 28.84C31.7547 28.84 32.1493 28.7013 32.448 28.424C32.7467 28.136 32.896 27.7627 32.896 27.304C32.896 26.8347 32.7467 26.456 32.448 26.168C32.1493 25.88 31.7547 25.736 31.264 25.736H29.248C29.184 25.736 29.152 25.768 29.152 25.832V28.744C29.152 28.808 29.184 28.84 29.248 28.84H31.264ZM42.7309 35C42.5922 35 42.4855 34.9307 42.4109 34.792L40.4429 30.44C40.4215 30.3867 40.3842 30.36 40.3309 30.36H38.8749C38.8109 30.36 38.7789 30.392 38.7789 30.456V34.728C38.7789 34.9093 38.6882 35 38.5069 35H36.7949C36.6135 35 36.5229 34.9093 36.5229 34.728V24.056C36.5229 23.8747 36.6135 23.784 36.7949 23.784H41.2909C41.9735 23.784 42.5709 23.928 43.0829 24.216C43.6055 24.4933 44.0055 24.888 44.2829 25.4C44.5709 25.912 44.7149 26.4987 44.7149 27.16C44.7149 27.8853 44.5335 28.5093 44.1709 29.032C43.8082 29.5547 43.3069 29.9227 42.6669 30.136C42.6349 30.1467 42.6135 30.168 42.6029 30.2C42.5922 30.2213 42.5975 30.2427 42.6189 30.264L44.7309 34.68C44.7629 34.7227 44.7789 34.7707 44.7789 34.824C44.7789 34.8773 44.7575 34.92 44.7149 34.952C44.6722 34.984 44.6135 35 44.5389 35H42.7309ZM38.8749 25.736C38.8109 25.736 38.7789 25.768 38.7789 25.832V28.52C38.7789 28.584 38.8109 28.616 38.8749 28.616H40.9549C41.4029 28.616 41.7655 28.488 42.0429 28.232C42.3309 27.9653 42.4749 27.6187 42.4749 27.192C42.4749 26.7653 42.3309 26.4187 42.0429 26.152C41.7655 25.8747 41.4029 25.736 40.9549 25.736H38.8749ZM54.127 25.464C54.127 25.6453 54.0363 25.736 53.855 25.736H48.703C48.639 25.736 48.607 25.768 48.607 25.832V28.28C48.607 28.344 48.639 28.376 48.703 28.376H52.047C52.2283 28.376 52.319 28.4667 52.319 28.648V30.04C52.319 30.2213 52.2283 30.312 52.047 30.312H48.703C48.639 30.312 48.607 30.344 48.607 30.408V32.968C48.607 33.032 48.639 33.064 48.703 33.064H53.855C54.0363 33.064 54.127 33.1547 54.127 33.336V34.728C54.127 34.9093 54.0363 35 53.855 35H46.623C46.4417 35 46.351 34.9093 46.351 34.728V24.072C46.351 23.8907 46.4417 23.8 46.623 23.8H53.855C54.0363 23.8 54.127 23.8907 54.127 24.072V25.464ZM55.4548 31.24C55.2734 31.24 55.1828 31.1493 55.1828 30.968V29.576C55.1828 29.3947 55.2734 29.304 55.4548 29.304H60.5268C60.7081 29.304 60.7988 29.3947 60.7988 29.576V30.968C60.7988 31.1493 60.7081 31.24 60.5268 31.24H55.4548ZM66.2256 35.176C65.3936 35.176 64.6576 35.0053 64.0176 34.664C63.3883 34.3227 62.8976 33.848 62.5456 33.24C62.1936 32.6213 62.0176 31.912 62.0176 31.112V27.688C62.0176 26.8987 62.1936 26.2 62.5456 25.592C62.8976 24.984 63.3883 24.5147 64.0176 24.184C64.6576 23.8427 65.3936 23.672 66.2256 23.672C67.0683 23.672 67.8043 23.8427 68.4336 24.184C69.0736 24.5147 69.5696 24.984 69.9216 25.592C70.2736 26.2 70.4496 26.8987 70.4496 27.688V31.112C70.4496 31.912 70.2736 32.6213 69.9216 33.24C69.5696 33.8587 69.0736 34.3387 68.4336 34.68C67.8043 35.0107 67.0683 35.176 66.2256 35.176ZM66.2256 33.24C66.8123 33.24 67.287 33.0533 67.6496 32.68C68.0123 32.3067 68.1936 31.8107 68.1936 31.192V27.672C68.1936 27.0533 68.0123 26.5573 67.6496 26.184C67.2976 25.8 66.823 25.608 66.2256 25.608C65.639 25.608 65.1643 25.8 64.8016 26.184C64.4496 26.5573 64.2736 27.0533 64.2736 27.672V31.192C64.2736 31.8107 64.4496 32.3067 64.8016 32.68C65.1643 33.0533 65.639 33.24 66.2256 33.24ZM78.3871 35C78.2485 35 78.1418 34.9307 78.0671 34.792L76.0991 30.44C76.0778 30.3867 76.0405 30.36 75.9871 30.36H74.5311C74.4671 30.36 74.4351 30.392 74.4351 30.456V34.728C74.4351 34.9093 74.3445 35 74.1631 35H72.4511C72.2698 35 72.1791 34.9093 72.1791 34.728V24.056C72.1791 23.8747 72.2698 23.784 72.4511 23.784H76.9471C77.6298 23.784 78.2271 23.928 78.7391 24.216C79.2618 24.4933 79.6618 24.888 79.9391 25.4C80.2271 25.912 80.3711 26.4987 80.3711 27.16C80.3711 27.8853 80.1898 28.5093 79.8271 29.032C79.4645 29.5547 78.9631 29.9227 78.3231 30.136C78.2911 30.1467 78.2698 30.168 78.2591 30.2C78.2485 30.2213 78.2538 30.2427 78.2751 30.264L80.3871 34.68C80.4191 34.7227 80.4351 34.7707 80.4351 34.824C80.4351 34.8773 80.4138 34.92 80.3711 34.952C80.3285 34.984 80.2698 35 80.1951 35H78.3871ZM74.5311 25.736C74.4671 25.736 74.4351 25.768 74.4351 25.832V28.52C74.4351 28.584 74.4671 28.616 74.5311 28.616H76.6111C77.0591 28.616 77.4218 28.488 77.6991 28.232C77.9871 27.9653 78.1311 27.6187 78.1311 27.192C78.1311 26.7653 77.9871 26.4187 77.6991 26.152C77.4218 25.8747 77.0591 25.736 76.6111 25.736H74.5311ZM82.2793 35C82.0979 35 82.0073 34.9093 82.0073 34.728V24.072C82.0073 23.8907 82.0979 23.8 82.2793 23.8H86.1993C86.9993 23.8 87.6979 23.944 88.2953 24.232C88.9033 24.5093 89.3726 24.904 89.7033 25.416C90.0339 25.928 90.1993 26.52 90.1993 27.192V31.608C90.1993 32.28 90.0339 32.872 89.7033 33.384C89.3726 33.896 88.9033 34.296 88.2953 34.584C87.6979 34.8613 86.9993 35 86.1993 35H82.2793ZM84.2633 32.968C84.2633 33.032 84.2953 33.064 84.3593 33.064H86.2793C86.7699 33.064 87.1646 32.8987 87.4633 32.568C87.7726 32.2373 87.9326 31.7947 87.9433 31.24V27.56C87.9433 27.0053 87.7886 26.5627 87.4793 26.232C87.1806 25.9013 86.7753 25.736 86.2633 25.736H84.3593C84.2953 25.736 84.2633 25.768 84.2633 25.832V32.968ZM99.6739 25.464C99.6739 25.6453 99.5832 25.736 99.4019 25.736H94.2499C94.1859 25.736 94.1539 25.768 94.1539 25.832V28.28C94.1539 28.344 94.1859 28.376 94.2499 28.376H97.5939C97.7752 28.376 97.8659 28.4667 97.8659 28.648V30.04C97.8659 30.2213 97.7752 30.312 97.5939 30.312H94.2499C94.1859 30.312 94.1539 30.344 94.1539 30.408V32.968C94.1539 33.032 94.1859 33.064 94.2499 33.064H99.4019C99.5832 33.064 99.6739 33.1547 99.6739 33.336V34.728C99.6739 34.9093 99.5832 35 99.4019 35H92.1699C91.9885 35 91.8979 34.9093 91.8979 34.728V24.072C91.8979 23.8907 91.9885 23.8 92.1699 23.8H99.4019C99.5832 23.8 99.6739 23.8907 99.6739 24.072V25.464ZM107.45 35C107.311 35 107.204 34.9307 107.13 34.792L105.162 30.44C105.14 30.3867 105.103 30.36 105.05 30.36H103.594C103.53 30.36 103.498 30.392 103.498 30.456V34.728C103.498 34.9093 103.407 35 103.226 35H101.514C101.332 35 101.242 34.9093 101.242 34.728V24.056C101.242 23.8747 101.332 23.784 101.514 23.784H106.01C106.692 23.784 107.29 23.928 107.802 24.216C108.324 24.4933 108.724 24.888 109.002 25.4C109.29 25.912 109.434 26.4987 109.434 27.16C109.434 27.8853 109.252 28.5093 108.89 29.032C108.527 29.5547 108.026 29.9227 107.386 30.136C107.354 30.1467 107.332 30.168 107.322 30.2C107.311 30.2213 107.316 30.2427 107.338 30.264L109.45 34.68C109.482 34.7227 109.498 34.7707 109.498 34.824C109.498 34.8773 109.476 34.92 109.434 34.952C109.391 34.984 109.332 35 109.258 35H107.45ZM103.594 25.736C103.53 25.736 103.498 25.768 103.498 25.832V28.52C103.498 28.584 103.53 28.616 103.594 28.616H105.674C106.122 28.616 106.484 28.488 106.762 28.232C107.05 27.9653 107.194 27.6187 107.194 27.192C107.194 26.7653 107.05 26.4187 106.762 26.152C106.484 25.8747 106.122 25.736 105.674 25.736H103.594ZM114.545 35C114.364 35 114.273 34.9093 114.273 34.728V24.072C114.273 23.8907 114.364 23.8 114.545 23.8H116.193C116.332 23.8 116.438 23.8587 116.513 23.976L120.513 30.632C120.534 30.6747 120.556 30.6907 120.577 30.68C120.609 30.6693 120.625 30.6427 120.625 30.6V24.072C120.625 23.8907 120.716 23.8 120.897 23.8H122.577C122.758 23.8 122.849 23.8907 122.849 24.072V34.728C122.849 34.9093 122.758 35 122.577 35H120.945C120.817 35 120.71 34.936 120.625 34.808L116.609 28.088C116.588 28.0453 116.561 28.0293 116.529 28.04C116.508 28.0507 116.497 28.0773 116.497 28.12L116.513 34.728C116.513 34.9093 116.422 35 116.241 35H114.545ZM128.788 35.176C127.956 35.176 127.22 35.0053 126.58 34.664C125.951 34.3227 125.46 33.848 125.108 33.24C124.756 32.6213 124.58 31.912 124.58 31.112V27.688C124.58 26.8987 124.756 26.2 125.108 25.592C125.46 24.984 125.951 24.5147 126.58 24.184C127.22 23.8427 127.956 23.672 128.788 23.672C129.631 23.672 130.367 23.8427 130.996 24.184C131.636 24.5147 132.132 24.984 132.484 25.592C132.836 26.2 133.012 26.8987 133.012 27.688V31.112C133.012 31.912 132.836 32.6213 132.484 33.24C132.132 33.8587 131.636 34.3387 130.996 34.68C130.367 35.0107 129.631 35.176 128.788 35.176ZM128.788 33.24C129.375 33.24 129.849 33.0533 130.212 32.68C130.575 32.3067 130.756 31.8107 130.756 31.192V27.672C130.756 27.0533 130.575 26.5573 130.212 26.184C129.86 25.8 129.385 25.608 128.788 25.608C128.201 25.608 127.727 25.8 127.364 26.184C127.012 26.5573 126.836 27.0533 126.836 27.672V31.192C126.836 31.8107 127.012 32.3067 127.364 32.68C127.727 33.0533 128.201 33.24 128.788 33.24ZM136.721 35C136.55 35 136.449 34.92 136.417 34.76L133.601 24.104C133.59 24.0827 133.585 24.056 133.585 24.024C133.585 23.8747 133.67 23.8 133.841 23.8H135.665C135.825 23.8 135.921 23.88 135.953 24.04L137.457 30.424C137.468 30.4667 137.489 30.488 137.521 30.488C137.553 30.488 137.574 30.4667 137.585 30.424L139.025 24.04C139.057 23.88 139.153 23.8 139.313 23.8H141.121C141.292 23.8 141.393 23.88 141.425 24.04L142.993 30.424C143.004 30.4667 143.02 30.488 143.041 30.488C143.073 30.488 143.094 30.4667 143.105 30.424L144.545 24.04C144.577 23.88 144.673 23.8 144.833 23.8H146.577C146.673 23.8 146.737 23.832 146.769 23.896C146.812 23.9493 146.822 24.0187 146.801 24.104L144.225 34.76C144.193 34.92 144.092 35 143.921 35H142.161C141.99 35 141.889 34.92 141.857 34.76L140.257 27.96C140.246 27.9173 140.225 27.896 140.193 27.896C140.161 27.896 140.14 27.9173 140.129 27.96L138.641 34.76C138.609 34.92 138.513 35 138.353 35H136.721Z" fill="white"/>
</g>
<defs>
<clipPath id="clip0_0_250">
<rect width="175" height="58" fill="white"/>
</clipPath>
</defs>
</svg>
